<?xml version="1.0" encoding="utf-8"?>
<!-- Generator: Adobe Illustrator 18.0.0, SVG Export Plug-In . SVG Version: 6.00 Build 0)  -->
<!DOCTYPE svg PUBLIC "-//W3C//DTD SVG 1.1//EN" "http://www.w3.org/Graphics/SVG/1.1/DTD/svg11.dtd">
<svg version="1.1" id="Layer_1" xmlns="http://www.w3.org/2000/svg" xmlns:xlink="http://www.w3.org/1999/xlink" x="0px" y="0px"
	 viewBox="0 0 58.9 59.4" enable-background="new 0 0 58.9 59.4" xml:space="preserve">
<path fill="#4E4E4E" d="M52.2,17.8l-4-4l3.7-3.7l4,4L52.2,17.8z M40.5,56.9h-38V7h8v3c0,0.7,0.6,1.2,1.2,1.2h19.4
	c0.7,0,1.3-0.6,1.3-1.2V7h8v11L24,34.5c0,0,0,0.1,0,0.1c-0.2,0.1-0.3,0.3-0.4,0.5l-6,11.8c-0.2,0.5-0.2,1.1,0.2,1.5
	c0.2,0.2,0.6,0.4,0.9,0.4c0.2,0,0.4,0,0.6-0.1l11.8-6c0.2-0.1,0.3-0.2,0.5-0.4c0,0,0.1,0,0.1-0.1l9-9V56.9z M13,2.5h16.9v6.2H13V2.5
	z M25.6,36.3C25.7,36.3,25.7,36.3,25.6,36.3l0.1-0.1l4,4l0,0c0,0,0,0.1-0.1,0.1l-8.2,4.2L25.6,36.3z M31.5,38.5l-4-4l18.9-18.9l4,4
	L31.5,38.5z M58.5,13.2l-5.8-5.8C52.3,7,51.4,7,51,7.5l-8,8V5.7c0-0.7-0.6-1.2-1.2-1.2h-9.3V1.2c0-0.7-0.6-1.2-1.3-1.2H11.8
	c-0.7,0-1.2,0.6-1.2,1.2v3.2H1.2C0.6,4.5,0,5.1,0,5.7v52.4c0,0.7,0.6,1.2,1.2,1.2h40.5c0.7,0,1.2-0.6,1.2-1.2V30.7
	c0-0.1,0-0.1,0-0.2L58.5,15C59,14.5,59,13.7,58.5,13.2z"/>
<path fill="#4E4E4E" d="M7.9,17.1h27.5c0.7,0,1.2-0.6,1.2-1.2c0-0.7-0.6-1.2-1.2-1.2H7.9c-0.7,0-1.2,0.6-1.2,1.2
	C6.7,16.5,7.2,17.1,7.9,17.1z"/>
<path fill="#4E4E4E" d="M7.9,21.8h27.5c0.7,0,1.2-0.6,1.2-1.2c0-0.7-0.6-1.2-1.2-1.2H7.9c-0.7,0-1.2,0.6-1.2,1.2
	C6.7,21.2,7.2,21.8,7.9,21.8z"/>
<path fill="#4E4E4E" d="M13,30.8H9.3v-3.7H13V30.8z M14.3,24.6H8c-0.7,0-1.2,0.6-1.2,1.2v6.2c0,0.7,0.6,1.2,1.2,1.2h6.2
	c0.7,0,1.2-0.6,1.2-1.2v-6.2C15.5,25.1,14.9,24.6,14.3,24.6z"/>
<path fill="#4E4E4E" d="M13,41.9H9.3v-3.7H13V41.9z M14.3,35.7H8c-0.7,0-1.2,0.6-1.2,1.2v6.2c0,0.7,0.6,1.2,1.2,1.2h6.2
	c0.7,0,1.2-0.6,1.2-1.2v-6.2C15.5,36.2,14.9,35.7,14.3,35.7z"/>
</svg>
